# xmcd
#
# Track frame offsets:
#	150
#	18214
#	35792
#	59626
#	80710
#	101116
#	120833
#	139841
#	153295
#	174291
#	177534
#	194785
#	214455
#	237804
#	254910
#	274044
#	289623
#	305614
#	313499
#	329180
#
# Disc length: 4605 seconds
# Revision: 0
# Processed by: cddbd v1.5.2PL0 Copyright (c) Steve Scherf et al.
# Submitted via: dBpowerAMP V12.0
#
DISCID=4111fb14
DTITLE=Josephine Sincere - Wildflower
DYEAR=2006
DGENRE=R&B
TTITLE0=Bleed [feat. Rachel Watson]
TTITLE1=I Like It
TTITLE2=You
TTITLE3=Jezebel
TTITLE4=A Song For Solomon [feat. Solomon Trotter]
TTITLE5=Shame
TTITLE6=Tell Me
TTITLE7=Still Feels Good
TTITLE8=Snowflakes
TTITLE9=Piano Interlude
TTITLE10=Forever
TTITLE11=Do You Love Me? [feat. Cubby St. Charles]
TTITLE12=Jane - Part 2 [feat. Mr. Jenkins]
TTITLE13=Sweet Harmony
TTITLE14=Wildflower
TTITLE15=Ooh Child
TTITLE16=Just A Friend
TTITLE17=Where My Soda At? [Skit]
TTITLE18=The Next One (gitit2getha) NT
TTITLE19=The Next One (gitit2getha)
EXTD=
EXTT0=
EXTT1=
EXTT2=
EXTT3=
EXTT4=
EXTT5=
EXTT6=
EXTT7=
EXTT8=
EXTT9=
EXTT10=
EXTT11=
EXTT12=
EXTT13=
EXTT14=
EXTT15=
EXTT16=
EXTT17=
EXTT18=
EXTT19=
PLAYORDER=
